<?xml version="1.0" encoding="UTF-8" standalone="no"?>
<svg
   xmlns:dc="http://purl.org/dc/elements/1.1/"
   xmlns:cc="http://creativecommons.org/ns#"
   xmlns:rdf="http://www.w3.org/1999/02/22-rdf-syntax-ns#"
   xmlns:svg="http://www.w3.org/2000/svg"
   xmlns="http://www.w3.org/2000/svg"
   xmlns:sodipodi="http://sodipodi.sourceforge.net/DTD/sodipodi-0.dtd"
   xmlns:inkscape="http://www.inkscape.org/namespaces/inkscape"
   height="2500"
   width="2490"
   viewBox="0 0 256 256"
   version="1.1"
   id="svg8"
   sodipodi:docname="linkedin.svg"
   inkscape:version="1.0.1 (3bc2e813f5, 2020-09-07)">
  <metadata
     id="metadata14">
    <rdf:RDF>
      <cc:Work
         rdf:about="">
        <dc:format>image/svg+xml</dc:format>
        <dc:type
           rdf:resource="http://purl.org/dc/dcmitype/StillImage" />
      </cc:Work>
    </rdf:RDF>
  </metadata>
  <defs
     id="defs12" />
  <sodipodi:namedview
     pagecolor="#ffffff"
     bordercolor="#666666"
     borderopacity="1"
     objecttolerance="10"
     gridtolerance="10"
     guidetolerance="10"
     inkscape:pageopacity="0"
     inkscape:pageshadow="2"
     inkscape:window-width="1366"
     inkscape:window-height="704"
     id="namedview10"
     showgrid="false"
     inkscape:zoom="0.2232"
     inkscape:cx="1245"
     inkscape:cy="1250"
     inkscape:window-x="0"
     inkscape:window-y="27"
     inkscape:window-maximized="1"
     inkscape:current-layer="svg8" />
  <g
     fill="none"
     id="g6"
     style="fill:#ffffff">
    <path
       d="M0 18.338C0 8.216 8.474 0 18.92 0h218.16C247.53 0 256 8.216 256 18.338v219.327C256 247.79 247.53 256 237.08 256H18.92C8.475 256 0 247.791 0 237.668V18.335z"
       fill="#069"
       id="path2"
       style="fill:none" />
    <path
       d="M77.796 214.238V98.986H39.488v115.252H77.8zM58.65 83.253c13.356 0 21.671-8.85 21.671-19.91-.25-11.312-8.315-19.915-21.417-19.915-13.111 0-21.674 8.603-21.674 19.914 0 11.06 8.312 19.91 21.169 19.91h.248zM99 214.238h38.305v-64.355c0-3.44.25-6.889 1.262-9.346 2.768-6.885 9.071-14.012 19.656-14.012 13.858 0 19.405 10.568 19.405 26.063v61.65h38.304v-66.082c0-35.399-18.896-51.872-44.099-51.872-20.663 0-29.738 11.549-34.78 19.415h.255V98.99H99.002c.5 10.812-.003 115.252-.003 115.252z"
       fill="#fff"
       id="path4"
       style="fill:#ffffff" />
  </g>
</svg>
