<?xml version="1.0" encoding="UTF-8" standalone="no"?>
<svg
   xmlns:dc="http://purl.org/dc/elements/1.1/"
   xmlns:cc="http://creativecommons.org/ns#"
   xmlns:rdf="http://www.w3.org/1999/02/22-rdf-syntax-ns#"
   xmlns:svg="http://www.w3.org/2000/svg"
   xmlns="http://www.w3.org/2000/svg"
   xmlns:sodipodi="http://sodipodi.sourceforge.net/DTD/sodipodi-0.dtd"
   xmlns:inkscape="http://www.inkscape.org/namespaces/inkscape"
   enable-background="new 0 0 2225.2 2230.7"
   viewBox="0 0 2225.2 2230.7"
   version="1.1"
   id="svg16"
   sodipodi:docname="sololearn.svg"
   inkscape:version="1.0.1 (3bc2e813f5, 2020-09-07)">
  <metadata
     id="metadata22">
    <rdf:RDF>
      <cc:Work
         rdf:about="">
        <dc:format>image/svg+xml</dc:format>
        <dc:type
           rdf:resource="http://purl.org/dc/dcmitype/StillImage" />
      </cc:Work>
    </rdf:RDF>
  </metadata>
  <defs
     id="defs20" />
  <sodipodi:namedview
     pagecolor="#ffffff"
     bordercolor="#666666"
     borderopacity="1"
     objecttolerance="10"
     gridtolerance="10"
     guidetolerance="10"
     inkscape:pageopacity="0"
     inkscape:pageshadow="2"
     inkscape:window-width="1366"
     inkscape:window-height="704"
     id="namedview18"
     showgrid="false"
     inkscape:zoom="0.2501457"
     inkscape:cx="1112.6"
     inkscape:cy="983.6195"
     inkscape:window-x="0"
     inkscape:window-y="27"
     inkscape:window-maximized="1"
     inkscape:current-layer="svg16" />
  <g
     stroke-miterlimit="10"
     id="g10"
     style="fill:#ffffff">
    <path
       d="m699.9 98.8s-597.3 699.4 135.7 1478.5c0 0-643.4-214-713.4-713.4 0 0-103.5-509.1 577.7-765.1z"
       fill="#6bb94f"
       stroke="#6bb94e"
       id="path2"
       style="fill:#ffffff" />
    <path
       d="m639.7 1119.9s83.9-1021.1 1156.8-891c0 0-465.8-381.9-895.2-158.1-1.4 0-611.3 331.5-261.6 1049.1z"
       fill="#ee7541"
       stroke="#ed7540"
       id="path4"
       style="fill:#ffffff" />
    <path
       d="m891.5 668.1s261.6-437.8 923.2-345.5c0 0 479.8 144.1 401.4 979.1-1.4 0-267.2-1011.3-1324.6-633.6z"
       fill="#e9555f"
       stroke="#e9565f"
       id="path6"
       style="fill:#ffffff" />
    <path
       d="m1431.4 644.3s815.5 797.3 0 1566.6c0 0 499.4-132.9 688.2-594.5 0 0 193-686.7-688.2-972.1z"
       fill="#ea589f"
       stroke="#e9589f"
       id="path8"
       style="fill:#ffffff" />
  </g>
  <path
     d="m1693 1189.8s-363.7 1035.1-1342.8 734.3c0 0 292.3 398.6 812.7 286.7-.1.1 661.5-50.2 530.1-1021z"
     fill="#32b7e9"
     id="path12"
     style="fill:#ffffff" />
  <path
     d="m35.5 896.1s226.6 937.2 1314.8 720.4c0 0-384.7 468.6-1000.1 230.8 0-.1-482.6-244.8-314.7-951.2z"
     fill="#118e9b"
     id="path14"
     style="fill:#ffffff" />
</svg>
